<?xml version="1.0" encoding="UTF-8" standalone="no"?><!-- Generator: Gravit.io --><svg xmlns="http://www.w3.org/2000/svg" xmlns:xlink="http://www.w3.org/1999/xlink" style="isolation:isolate" viewBox="0 0 500 500" width="500pt" height="500pt"><defs><clipPath id="_clipPath_k5UFnKHaVR6itomhFLkjPWR276QhUdCk"><rect width="500" height="500"/></clipPath></defs><g clip-path="url(#_clipPath_k5UFnKHaVR6itomhFLkjPWR276QhUdCk)"><path d="M 73.57 0 L 429.43 0 C 460.1 0 485 24.9 485 55.57 L 485 444.43 C 485 475.1 460.1 500 429.43 500 L 73.57 500 C 42.9 500 18 475.1 18 444.43 L 18 55.57 C 18 24.9 42.9 0 73.57 0 Z" style="stroke:none;fill:#ACACAC;stroke-miterlimit:10;"/><path d=" M 94.5 0 L 405.5 0 C 433.096 0 455.5 22.404 455.5 50 L 455.5 450 C 455.5 477.596 433.096 500 405.5 500 L 94.5 500 C 66.904 500 44.5 477.596 44.5 450 L 44.5 50 C 44.5 22.404 66.904 0 94.5 0 Z " fill="rgb(225,225,225)"/><path d="M 250 110 L 250 110 C 283.667 110 311 137.333 311 171 L 311 329 C 311 362.667 283.667 390 250 390 L 250 390 C 216.333 390 189 362.667 189 329 L 189 171 C 189 137.333 216.333 110 250 110 Z" style="stroke:none;fill:#4F4F4F;stroke-miterlimit:10;"/><circle vector-effect="non-scaling-stroke" cx="250" cy="250" r="47" fill="rgb(255,221,0)"/><circle vector-effect="non-scaling-stroke" cx="250" cy="250" r="37" fill="rgb(255,241,151)"/></g></svg>